<svg xmlns="http://www.w3.org/2000/svg" width="180" height="196.993" viewBox="0 0 180 196.993">
  <path id="icon1" d="M82.735,196.26a35.845,35.845,0,0,1-12.891-5.427,36.169,36.169,0,0,1-13.061-15.868,35.9,35.9,0,0,1-2.1-6.77,36.336,36.336,0,0,1-.731-6.929,36.309,36.309,0,0,1-6.528,2.925,35.842,35.842,0,0,1-13.876,1.748,36.149,36.149,0,0,1-19.242-7.209,35.879,35.879,0,0,1-5.2-4.812,36.419,36.419,0,0,1-7.266-12.59A35.887,35.887,0,0,1,.089,127.447,36.177,36.177,0,0,1,7.3,108.2a35.869,35.869,0,0,1,4.81-5.205,36.3,36.3,0,0,1,5.783-4.186l-.174-.3.229-.4A36.307,36.307,0,0,1,12.3,94,35.869,35.869,0,0,1,3.849,82.854,36.186,36.186,0,0,1,.469,62.578a35.891,35.891,0,0,1,1.564-6.914A36.42,36.42,0,0,1,9.3,43.075,35.86,35.86,0,0,1,20.442,34.62a36.14,36.14,0,0,1,20.267-3.382A35.862,35.862,0,0,1,47.619,32.8a36.284,36.284,0,0,1,6.333,2.814,36.319,36.319,0,0,1,.73-6.819,35.871,35.871,0,0,1,5.424-12.9A36.16,36.16,0,0,1,75.967,2.834a35.866,35.866,0,0,1,6.767-2.1,36.383,36.383,0,0,1,14.531,0A35.841,35.841,0,0,1,110.156,6.16a36.172,36.172,0,0,1,13.061,15.868,35.9,35.9,0,0,1,2.1,6.77,36.324,36.324,0,0,1,.732,7.06h.1l0,.006A36.28,36.28,0,0,1,132.577,33a35.833,35.833,0,0,1,13.876-1.748,36.147,36.147,0,0,1,19.242,7.209,35.867,35.867,0,0,1,5.2,4.812,36.415,36.415,0,0,1,7.266,12.59,35.886,35.886,0,0,1,1.748,13.882A36.177,36.177,0,0,1,172.7,88.993a35.877,35.877,0,0,1-4.81,5.205,36.307,36.307,0,0,1-5.7,4.136l.09.156-.18.312a36.314,36.314,0,0,1,5.788,4.189,35.867,35.867,0,0,1,8.452,11.148,36.189,36.189,0,0,1,3.381,20.276,35.9,35.9,0,0,1-1.564,6.914,36.423,36.423,0,0,1-7.265,12.59,35.851,35.851,0,0,1-11.143,8.455,36.14,36.14,0,0,1-20.267,3.382,35.861,35.861,0,0,1-6.911-1.565,36.316,36.316,0,0,1-6.528-2.925,36.329,36.329,0,0,1-.731,6.929,35.874,35.874,0,0,1-5.424,12.9,36.161,36.161,0,0,1-15.861,13.067,35.865,35.865,0,0,1-6.767,2.1,36.392,36.392,0,0,1-14.531,0ZM54.047,78.111v41.555L90,140.443l35.953-20.777V78.111L90,57.334Z" fill="#24c0de"/>
</svg>
