<svg xmlns="http://www.w3.org/2000/svg" width="1308.385" height="380.207" viewBox="0 0 1308.385 380.207">
  <g id="logo" transform="translate(-206.646 -369)">
    <path id="icon1" d="M159.682,378.793a69.182,69.182,0,0,1-24.88-10.474,69.808,69.808,0,0,1-25.209-30.626,69.3,69.3,0,0,1-4.054-13.066,70.131,70.131,0,0,1-1.411-13.374,70.079,70.079,0,0,1-12.6,5.645,69.176,69.176,0,0,1-26.781,3.375A69.769,69.769,0,0,1,27.61,306.358a69.247,69.247,0,0,1-10.042-9.288,70.291,70.291,0,0,1-14.023-24.3A69.264,69.264,0,0,1,.173,245.979,69.824,69.824,0,0,1,14.08,208.824a69.229,69.229,0,0,1,9.284-10.046A70.067,70.067,0,0,1,34.525,190.7l-.337-.583.443-.767a70.073,70.073,0,0,1-10.889-7.92A69.23,69.23,0,0,1,7.43,159.913,69.841,69.841,0,0,1,.9,120.779a69.272,69.272,0,0,1,3.019-13.344,70.293,70.293,0,0,1,14.023-24.3A69.211,69.211,0,0,1,39.453,66.818a69.751,69.751,0,0,1,39.116-6.528,69.215,69.215,0,0,1,13.338,3.02,70.031,70.031,0,0,1,12.223,5.432,70.1,70.1,0,0,1,1.408-13.16,69.232,69.232,0,0,1,10.469-24.891A69.791,69.791,0,0,1,146.621,5.47a69.223,69.223,0,0,1,13.061-4.056,70.22,70.22,0,0,1,28.045,0,69.175,69.175,0,0,1,24.88,10.474,69.813,69.813,0,0,1,25.209,30.626,69.3,69.3,0,0,1,4.054,13.067,70.107,70.107,0,0,1,1.413,13.627h.19l.007.012a70.021,70.021,0,0,1,12.4-5.531,69.159,69.159,0,0,1,26.781-3.375A69.766,69.766,0,0,1,319.8,74.227a69.225,69.225,0,0,1,10.042,9.288,70.284,70.284,0,0,1,14.023,24.3,69.263,69.263,0,0,1,3.373,26.793,69.824,69.824,0,0,1-13.907,37.155,69.246,69.246,0,0,1-9.284,10.046,70.074,70.074,0,0,1-11,7.983l.174.3-.347.6a70.089,70.089,0,0,1,11.172,8.085,69.226,69.226,0,0,1,16.312,21.516,69.847,69.847,0,0,1,6.525,39.133,69.3,69.3,0,0,1-3.019,13.344,70.3,70.3,0,0,1-14.022,24.3,69.193,69.193,0,0,1-21.507,16.319,69.751,69.751,0,0,1-39.116,6.528,69.213,69.213,0,0,1-13.338-3.02,70.093,70.093,0,0,1-12.6-5.645,70.115,70.115,0,0,1-1.411,13.374A69.237,69.237,0,0,1,231.4,349.517a69.794,69.794,0,0,1-30.613,25.22,69.221,69.221,0,0,1-13.061,4.056,70.237,70.237,0,0,1-28.046,0ZM104.314,150.759v80.2l69.39,40.1,69.391-40.1v-80.2l-69.391-40.1Z" transform="translate(206.646 369)" fill="#24c0de"/>
    <path id="Path_1" data-name="Path 1" d="M74.249-83.924A61.4,61.4,0,0,1,107.073-74.8a65.413,65.413,0,0,1,23.446,24.967,71.743,71.743,0,0,1,8.618,34.852,71.02,71.02,0,0,1-8.618,34.726,65.662,65.662,0,0,1-23.446,24.84,61.4,61.4,0,0,1-32.825,9.125A60.794,60.794,0,0,1,41.3,44.333v7.1H9.36V-126H41.3v51.455A62.482,62.482,0,0,1,74.249-83.924Zm0,105.7A30.245,30.245,0,0,0,97.822,11.255Q107.2.736,107.2-14.979T97.695-41.34A30.2,30.2,0,0,0,74.249-51.986,30.2,30.2,0,0,0,50.8-41.34Q41.3-30.695,41.3-14.979t9.378,26.234A30.245,30.245,0,0,0,74.249,21.774Zm153.6-105.7A61.4,61.4,0,0,1,260.677-74.8a65.413,65.413,0,0,1,23.446,24.967,71.743,71.743,0,0,1,8.618,34.852,71.02,71.02,0,0,1-8.618,34.726,65.662,65.662,0,0,1-23.446,24.84,61.4,61.4,0,0,1-32.825,9.125A60.794,60.794,0,0,1,194.9,44.333v7.1H162.964V-126H194.9v51.455A62.482,62.482,0,0,1,227.853-83.924Zm0,105.7a30.245,30.245,0,0,0,23.573-10.519Q260.8.736,260.8-14.979T251.3-41.34a30.2,30.2,0,0,0-23.446-10.646A30.2,30.2,0,0,0,204.406-41.34Q194.9-30.695,194.9-14.979t9.378,26.234A30.245,30.245,0,0,0,227.853,21.774ZM351.04-126H319.1V51.43H351.04ZM443.557,53.711a64.476,64.476,0,0,0,33.585-9.125,66.331,66.331,0,0,0,24.207-24.84,69.412,69.412,0,0,0,8.872-34.726,70.114,70.114,0,0,0-8.872-34.852A66.066,66.066,0,0,0,477.142-74.8a64.476,64.476,0,0,0-33.585-9.125A64.276,64.276,0,0,0,409.845-74.8a66.37,66.37,0,0,0-24.08,24.967,70.115,70.115,0,0,0-8.871,34.852,69.412,69.412,0,0,0,8.871,34.726,66.637,66.637,0,0,0,24.08,24.84A64.276,64.276,0,0,0,443.557,53.711Zm0-105.7a33.46,33.46,0,0,1,17.616,4.816A34,34,0,0,1,473.72-33.863a39.253,39.253,0,0,1,4.562,18.884q0,15.715-9.885,26.234t-24.84,10.519q-14.955,0-24.84-10.519t-9.885-26.234a39.253,39.253,0,0,1,4.562-18.884A34,34,0,0,1,425.941-47.17,33.46,33.46,0,0,1,443.557-51.986Zm153.6,105.7a64.476,64.476,0,0,0,33.585-9.125,66.332,66.332,0,0,0,24.207-24.84,69.412,69.412,0,0,0,8.871-34.726,70.115,70.115,0,0,0-8.871-34.852A66.067,66.067,0,0,0,630.746-74.8a64.476,64.476,0,0,0-33.585-9.125A64.276,64.276,0,0,0,563.449-74.8a66.37,66.37,0,0,0-24.08,24.967A70.114,70.114,0,0,0,530.5-14.979a69.411,69.411,0,0,0,8.872,34.726,66.637,66.637,0,0,0,24.08,24.84A64.276,64.276,0,0,0,597.161,53.711Zm0-105.7a33.46,33.46,0,0,1,17.616,4.816,34,34,0,0,1,12.547,13.307,39.253,39.253,0,0,1,4.563,18.884q0,15.715-9.885,26.234t-24.84,10.519q-14.955,0-24.84-10.519t-9.885-26.234A39.254,39.254,0,0,1,567-33.863,34,34,0,0,1,579.545-47.17,33.46,33.46,0,0,1,597.161-51.986ZM820.723-83.67A53.864,53.864,0,0,1,848.6-76.193a55.178,55.178,0,0,1,20.024,20.151,55.057,55.057,0,0,1,7.351,28.135V51.43H844.042V-27.906a23.287,23.287,0,0,0-6.717-16.983,22.34,22.34,0,0,0-16.6-6.844,22.34,22.34,0,0,0-16.6,6.844A23.287,23.287,0,0,0,797.4-27.906V51.43H765.466V-27.906a23.527,23.527,0,0,0-6.59-16.983A21.929,21.929,0,0,0,742.4-51.733a22.441,22.441,0,0,0-16.729,6.717q-6.59,6.717-6.59,17.109V51.43H687.143V-81.642h31.937V-78.6A54.618,54.618,0,0,1,742.4-83.67a53.6,53.6,0,0,1,21.418,4.309,55.954,55.954,0,0,1,17.616,11.913,55.128,55.128,0,0,1,17.87-12.04A55,55,0,0,1,820.723-83.67Z" transform="translate(639.051 578.082)" fill="#040214"/>
  </g>
</svg>
